<svg version="1.0" xmlns="http://www.w3.org/2000/svg"
 width="50" height="50" viewBox="0 0 512.000000 512.000000"
 preserveAspectRatio="xMidYMid meet">

<g transform="translate(0.000000,512.000000) scale(0.100000,-0.100000)"
fill="white" stroke="none">
<path d="M1255 4260 l-159 -400 -86 0 c-104 0 -174 19 -232 63 -55 42 -106
127 -114 189 l-7 48 -148 0 -149 0 0 -37 c1 -185 149 -408 330 -497 143 -69
36 -66 1870 -66 1834 0 1727 -3 1870 66 181 89 329 312 330 497 l0 37 -149 0
-148 0 -7 -48 c-8 -62 -59 -147 -114 -189 -58 -44 -128 -63 -232 -63 l-86 0
-159 400 -158 400 -1147 0 -1147 0 -158 -400z"/>
<path d="M1010 3060 l0 -200 1550 0 1550 0 0 200 0 200 -1550 0 -1550 0 0
-200z"/>
<path d="M932 2543 c-5 -10 -60 -145 -122 -300 l-112 -283 -74 0 c-169 0 -296
102 -320 258 l-7 42 -148 0 -149 0 0 -33 c0 -55 37 -184 72 -250 42 -81 164
-203 245 -245 34 -18 96 -41 139 -52 76 -20 118 -20 2104 -20 1986 0 2028 0
2104 20 43 11 105 34 139 52 81 42 203 164 245 245 35 66 72 195 72 250 l0 33
-149 0 -148 0 -7 -42 c-24 -156 -151 -258 -320 -258 l-74 0 -119 298 -119 297
-1622 3 c-1537 2 -1622 1 -1630 -15z"/>
<path d="M650 910 l0 -450 260 0 260 0 0 450 0 450 -260 0 -260 0 0 -450z"/>
<path d="M1470 910 l0 -450 265 0 265 0 0 450 0 450 -265 0 -265 0 0 -450z"/>
<path d="M2300 910 l0 -450 260 0 260 0 0 450 0 450 -260 0 -260 0 0 -450z"/>
<path d="M3120 910 l0 -450 265 0 265 0 0 450 0 450 -265 0 -265 0 0 -450z"/>
<path d="M3950 910 l0 -450 260 0 260 0 0 450 0 450 -260 0 -260 0 0 -450z"/>
</g>
</svg>
